<mxfile host="app.diagrams.net" modified="2023-08-25T13:48:20.339Z" agent="Mozilla/5.0 (X11; Linux x86_64; rv:109.0) Gecko/20100101 Firefox/112.0" etag="owDS1-b_7uij0nHWigv0" version="21.6.9" type="github">
  <diagram name="Página-1" id="Dov8Kka9WfZ0M7vMkqQS">
    <mxGraphModel dx="1434" dy="722" grid="1" gridSize="10" guides="1" tooltips="1" connect="1" arrows="1" fold="1" page="1" pageScale="1" pageWidth="827" pageHeight="1169" math="0" shadow="0">
      <root>
        <mxCell id="0" />
        <mxCell id="1" parent="0" />
        <mxCell id="f8mZ4YBtqhRP99mtQS2d-3" value="Cliente" style="swimlane;whiteSpace=wrap;html=1;" vertex="1" parent="1">
          <mxGeometry x="550" y="80" width="160" height="160" as="geometry" />
        </mxCell>
        <mxCell id="f8mZ4YBtqhRP99mtQS2d-16" value="&lt;div&gt;RG&lt;/div&gt;&lt;div&gt;Nome&lt;/div&gt;&lt;div&gt;Telefone&lt;/div&gt;&lt;div&gt;Endereço&lt;br&gt;&lt;/div&gt;" style="text;html=1;align=center;verticalAlign=middle;resizable=0;points=[];autosize=1;strokeColor=none;fillColor=none;" vertex="1" parent="f8mZ4YBtqhRP99mtQS2d-3">
          <mxGeometry x="40" y="50" width="80" height="70" as="geometry" />
        </mxCell>
        <mxCell id="f8mZ4YBtqhRP99mtQS2d-4" value="Produto" style="swimlane;whiteSpace=wrap;html=1;" vertex="1" parent="1">
          <mxGeometry x="80" y="410" width="160" height="160" as="geometry" />
        </mxCell>
        <mxCell id="f8mZ4YBtqhRP99mtQS2d-22" value="&lt;div&gt;Nome&lt;/div&gt;&lt;div&gt;Tipo&lt;/div&gt;&lt;div&gt;Preço&lt;/div&gt;&lt;div&gt;Quantidade&lt;br&gt;&lt;/div&gt;" style="text;html=1;align=center;verticalAlign=middle;resizable=0;points=[];autosize=1;strokeColor=none;fillColor=none;" vertex="1" parent="f8mZ4YBtqhRP99mtQS2d-4">
          <mxGeometry x="35" y="45" width="90" height="70" as="geometry" />
        </mxCell>
        <mxCell id="f8mZ4YBtqhRP99mtQS2d-5" value="Floricultura" style="swimlane;whiteSpace=wrap;html=1;" vertex="1" parent="1">
          <mxGeometry x="80" y="80" width="160" height="160" as="geometry" />
        </mxCell>
        <mxCell id="f8mZ4YBtqhRP99mtQS2d-6" value="Compra" style="rhombus;whiteSpace=wrap;html=1;" vertex="1" parent="1">
          <mxGeometry x="590" y="450" width="80" height="80" as="geometry" />
        </mxCell>
        <mxCell id="f8mZ4YBtqhRP99mtQS2d-7" value="Ter" style="rhombus;whiteSpace=wrap;html=1;" vertex="1" parent="1">
          <mxGeometry x="125" y="280" width="70" height="70" as="geometry" />
        </mxCell>
        <mxCell id="f8mZ4YBtqhRP99mtQS2d-8" value="Ter" style="rhombus;whiteSpace=wrap;html=1;" vertex="1" parent="1">
          <mxGeometry x="360" y="120" width="80" height="80" as="geometry" />
        </mxCell>
        <mxCell id="f8mZ4YBtqhRP99mtQS2d-10" value="" style="endArrow=none;html=1;rounded=0;exitX=0.5;exitY=1;exitDx=0;exitDy=0;entryX=0.5;entryY=0;entryDx=0;entryDy=0;" edge="1" parent="1" source="f8mZ4YBtqhRP99mtQS2d-5" target="f8mZ4YBtqhRP99mtQS2d-7">
          <mxGeometry width="50" height="50" relative="1" as="geometry">
            <mxPoint x="410" y="400" as="sourcePoint" />
            <mxPoint x="460" y="350" as="targetPoint" />
          </mxGeometry>
        </mxCell>
        <mxCell id="f8mZ4YBtqhRP99mtQS2d-11" value="" style="endArrow=none;html=1;rounded=0;entryX=1;entryY=0.5;entryDx=0;entryDy=0;" edge="1" parent="1" source="f8mZ4YBtqhRP99mtQS2d-8" target="f8mZ4YBtqhRP99mtQS2d-5">
          <mxGeometry width="50" height="50" relative="1" as="geometry">
            <mxPoint x="410" y="400" as="sourcePoint" />
            <mxPoint x="460" y="350" as="targetPoint" />
          </mxGeometry>
        </mxCell>
        <mxCell id="f8mZ4YBtqhRP99mtQS2d-12" value="" style="endArrow=none;html=1;rounded=0;entryX=0;entryY=0.5;entryDx=0;entryDy=0;exitX=1;exitY=0.5;exitDx=0;exitDy=0;" edge="1" parent="1" source="f8mZ4YBtqhRP99mtQS2d-8" target="f8mZ4YBtqhRP99mtQS2d-3">
          <mxGeometry width="50" height="50" relative="1" as="geometry">
            <mxPoint x="410" y="400" as="sourcePoint" />
            <mxPoint x="460" y="350" as="targetPoint" />
          </mxGeometry>
        </mxCell>
        <mxCell id="f8mZ4YBtqhRP99mtQS2d-13" value="" style="endArrow=none;html=1;rounded=0;exitX=0.5;exitY=0;exitDx=0;exitDy=0;entryX=0.5;entryY=1;entryDx=0;entryDy=0;" edge="1" parent="1" source="f8mZ4YBtqhRP99mtQS2d-6" target="f8mZ4YBtqhRP99mtQS2d-3">
          <mxGeometry width="50" height="50" relative="1" as="geometry">
            <mxPoint x="410" y="400" as="sourcePoint" />
            <mxPoint x="460" y="350" as="targetPoint" />
          </mxGeometry>
        </mxCell>
        <mxCell id="f8mZ4YBtqhRP99mtQS2d-14" value="" style="endArrow=none;html=1;rounded=0;exitX=0;exitY=0.5;exitDx=0;exitDy=0;entryX=1;entryY=0.5;entryDx=0;entryDy=0;" edge="1" parent="1" source="f8mZ4YBtqhRP99mtQS2d-6" target="f8mZ4YBtqhRP99mtQS2d-4">
          <mxGeometry width="50" height="50" relative="1" as="geometry">
            <mxPoint x="479" y="600" as="sourcePoint" />
            <mxPoint x="349" y="460" as="targetPoint" />
          </mxGeometry>
        </mxCell>
        <mxCell id="f8mZ4YBtqhRP99mtQS2d-15" value="" style="endArrow=none;html=1;rounded=0;exitX=0.5;exitY=1;exitDx=0;exitDy=0;" edge="1" parent="1" source="f8mZ4YBtqhRP99mtQS2d-7">
          <mxGeometry width="50" height="50" relative="1" as="geometry">
            <mxPoint x="410" y="400" as="sourcePoint" />
            <mxPoint x="160" y="410" as="targetPoint" />
          </mxGeometry>
        </mxCell>
        <mxCell id="f8mZ4YBtqhRP99mtQS2d-17" value="" style="endArrow=none;html=1;rounded=0;" edge="1" parent="1" target="f8mZ4YBtqhRP99mtQS2d-21">
          <mxGeometry width="50" height="50" relative="1" as="geometry">
            <mxPoint x="650" y="470" as="sourcePoint" />
            <mxPoint x="700" y="420" as="targetPoint" />
            <Array as="points">
              <mxPoint x="700" y="430" />
            </Array>
          </mxGeometry>
        </mxCell>
        <mxCell id="f8mZ4YBtqhRP99mtQS2d-21" value="Data" style="text;html=1;align=center;verticalAlign=middle;resizable=0;points=[];autosize=1;strokeColor=none;fillColor=none;" vertex="1" parent="1">
          <mxGeometry x="690" y="400" width="50" height="30" as="geometry" />
        </mxCell>
        <mxCell id="f8mZ4YBtqhRP99mtQS2d-23" value="1" style="text;html=1;align=center;verticalAlign=middle;resizable=0;points=[];autosize=1;strokeColor=none;fillColor=none;" vertex="1" parent="1">
          <mxGeometry x="155" y="238" width="30" height="30" as="geometry" />
        </mxCell>
        <mxCell id="f8mZ4YBtqhRP99mtQS2d-24" value="N" style="text;html=1;align=center;verticalAlign=middle;resizable=0;points=[];autosize=1;strokeColor=none;fillColor=none;" vertex="1" parent="1">
          <mxGeometry x="165" y="378" width="30" height="30" as="geometry" />
        </mxCell>
        <mxCell id="f8mZ4YBtqhRP99mtQS2d-25" value="1" style="text;html=1;align=center;verticalAlign=middle;resizable=0;points=[];autosize=1;strokeColor=none;fillColor=none;" vertex="1" parent="1">
          <mxGeometry x="235" y="138" width="30" height="30" as="geometry" />
        </mxCell>
        <mxCell id="f8mZ4YBtqhRP99mtQS2d-26" value="N" style="text;html=1;align=center;verticalAlign=middle;resizable=0;points=[];autosize=1;strokeColor=none;fillColor=none;" vertex="1" parent="1">
          <mxGeometry x="515" y="138" width="30" height="30" as="geometry" />
        </mxCell>
        <mxCell id="f8mZ4YBtqhRP99mtQS2d-27" value="1" style="text;html=1;align=center;verticalAlign=middle;resizable=0;points=[];autosize=1;strokeColor=none;fillColor=none;" vertex="1" parent="1">
          <mxGeometry x="625" y="238" width="30" height="30" as="geometry" />
        </mxCell>
        <mxCell id="f8mZ4YBtqhRP99mtQS2d-28" value="N" style="text;html=1;align=center;verticalAlign=middle;resizable=0;points=[];autosize=1;strokeColor=none;fillColor=none;" vertex="1" parent="1">
          <mxGeometry x="235" y="468" width="30" height="30" as="geometry" />
        </mxCell>
      </root>
    </mxGraphModel>
  </diagram>
</mxfile>
